# xmcd CD database file
#
# Track frame offsets:
#	150
#	14611
#	29539
#	44977
#	57812
#	75978
#	96895
#	125000
#	144222
#	160106
#	189456
#	207352
#	224255
#	244483
#	257772
#	277045
#
# Disc length: 3980 seconds
#
# Revision: 0
# Processed by: cddbd v1.5.2PL0 Copyright (c) Steve Scherf et al.
# Submitted via: CDex 1.70beta2
#
DISCID=ef0f8a10
DTITLE=The Cannonballs - The Cannonballs (Debut Album)
DYEAR=2002
DGENRE=Blues
TTITLE0=Staring Down The Barrel of The Blues
TTITLE1=Losers Weepers
TTITLE2=What's That About?
TTITLE3=Worrying About The World
TTITLE4=that's all i need
TTITLE5=i don't get mad, i get even
TTITLE6=qualified
TTITLE7=kaliyuga highway
TTITLE8=easy shang a lang
TTITLE9=mother don't think i'm an angel
TTITLE10=the chattanooga shine
TTITLE11=meet me with your black dress on
TTITLE12=love to a stranger
TTITLE13=you got me so bad baby
TTITLE14=call each other friend
TTITLE15=way down here
EXTD=YEAR: 2002
EXTT0=
EXTT1=
EXTT2=
EXTT3=
EXTT4=
EXTT5=
EXTT6=
EXTT7=
EXTT8=
EXTT9=
EXTT10=
EXTT11=
EXTT12=
EXTT13=
EXTT14=
EXTT15=
PLAYORDER=
